<svg xmlns="http://www.w3.org/2000/svg" viewBox="0 0 16 16" shape-rendering="crispEdges">
  <rect width="16" height="16" fill="#000000"/>
  <rect x="3" y="1" width="10" height="1" fill="#e8e3d3"/>
  <rect x="2" y="2" width="12" height="1" fill="#e8e3d3"/>
  <rect x="2" y="3" width="12" height="1" fill="#e8e3d3"/>
  <rect x="2" y="4" width="5" height="1" fill="#e8e3d3"/>
  <rect x="2" y="5" width="4" height="1" fill="#e8e3d3"/>
  <rect x="2" y="6" width="4" height="1" fill="#e8e3d3"/>
  <rect x="2" y="7" width="4" height="1" fill="#e8e3d3"/>
  <rect x="10" y="7" width="2" height="1" fill="#ffb454"/>
  <rect x="2" y="8" width="4" height="1" fill="#e8e3d3"/>
  <rect x="10" y="8" width="2" height="1" fill="#ffb454"/>
  <rect x="2" y="9" width="4" height="1" fill="#e8e3d3"/>
  <rect x="2" y="10" width="4" height="1" fill="#e8e3d3"/>
  <rect x="2" y="11" width="5" height="1" fill="#e8e3d3"/>
  <rect x="2" y="12" width="12" height="1" fill="#e8e3d3"/>
  <rect x="2" y="13" width="12" height="1" fill="#e8e3d3"/>
  <rect x="3" y="14" width="10" height="1" fill="#e8e3d3"/>
</svg>
